<?xml version="1.0" standalone="no"?>
<!DOCTYPE svg PUBLIC "-//W3C//DTD SVG 20010904//EN"
 "http://www.w3.org/TR/2001/REC-SVG-20010904/DTD/svg10.dtd">
<svg version="1.0" xmlns="http://www.w3.org/2000/svg"
 width="1032.000000pt" height="914.000000pt" viewBox="0 0 1032.000000 914.000000"
 preserveAspectRatio="xMidYMid meet">
<metadata>
Created by potrace 1.16, written by Peter Selinger 2001-2019
</metadata>
<g transform="translate(0.000000,914.000000) scale(0.100000,-0.100000)"
fill="#000000" stroke="none">
<path d="M4996 7284 c-3 -9 -6 -31 -6 -49 0 -24 -6 -38 -19 -45 -27 -14 -41
-13 -41 5 0 35 -185 5 -220 -36 -8 -9 -49 -44 -91 -77 -87 -69 -124 -112 -134
-159 -3 -18 -20 -60 -37 -93 -16 -33 -33 -86 -38 -117 -5 -32 -15 -75 -24 -95
-9 -21 -16 -45 -16 -55 1 -16 2 -16 12 2 6 10 14 33 18 50 l7 30 12 -30 c6
-16 17 -41 24 -54 l12 -24 3 24 c4 25 22 52 22 32 0 -7 13 -26 29 -44 26 -29
29 -37 24 -79 -4 -35 0 -55 16 -86 30 -56 62 -90 92 -97 27 -7 42 -35 69 -132
10 -36 9 -46 -15 -98 -25 -55 -29 -58 -54 -52 -37 10 -80 9 -126 -3 -22 -6
-65 -16 -95 -23 -117 -25 -121 -27 -190 -118 -36 -47 -77 -106 -92 -131 -16
-25 -32 -44 -37 -43 -5 1 -12 -16 -16 -39 -5 -28 -10 -36 -16 -27 -5 8 -6 23
-3 34 17 60 16 61 -6 36 -18 -21 -25 -23 -49 -15 -18 7 -34 7 -50 0 -19 -8
-26 -7 -36 7 -10 14 -31 17 -139 17 -77 0 -126 -4 -126 -10 0 -6 -28 -10 -64
-10 -36 0 -68 -4 -71 -10 -3 -5 -13 -10 -21 -10 -20 0 -17 30 4 31 12 0 10 3
-8 10 -14 6 -43 8 -64 4 -26 -4 -42 -2 -47 6 -5 8 -63 12 -195 13 -104 1 -196
5 -204 8 -15 6 -312 21 -470 24 -47 1 -87 2 -90 3 -3 1 -180 5 -395 8 -467 6
-618 12 -625 23 -3 5 -321 6 -708 3 l-702 -6 0 -924 0 -923 73 0 c39 -1 245
-3 457 -6 441 -7 412 -7 752 -3 254 3 258 3 278 -19 15 -16 32 -22 61 -22 24
0 38 4 34 10 -3 6 -24 10 -46 10 -21 0 -39 5 -39 10 0 12 33 13 428 11 209 -1
308 2 317 9 10 8 25 8 53 1 36 -10 320 -16 551 -12 54 1 98 -3 106 -9 10 -8
18 -4 31 14 11 14 33 28 49 31 l30 7 -40 -39 c-77 -73 -83 -77 -100 -63 -16
13 -65 6 -65 -10 0 -19 -40 -50 -64 -50 -18 0 -25 -6 -28 -22 -3 -21 -8 -23
-53 -20 -27 2 -51 8 -53 13 -2 5 -10 2 -18 -6 -11 -11 -21 -12 -45 -3 -25 8
-33 8 -40 -3 -8 -12 -13 -6 -11 13 1 3 -5 9 -13 12 -9 3 -12 0 -8 -10 7 -18
-5 -18 -48 0 -41 16 -96 10 -124 -14 -24 -21 -95 -16 -95 6 0 8 -5 14 -11 14
-6 0 -8 -8 -4 -19 5 -18 1 -19 -64 -17 -39 2 -76 8 -84 14 -7 6 -28 11 -47 10
-109 -2 -216 4 -228 14 -10 9 -15 9 -20 1 -4 -6 -42 -15 -85 -20 -61 -7 -77
-7 -77 4 0 18 -17 16 -24 -2 -10 -26 -29 -17 -22 10 5 18 2 25 -9 25 -8 0 -15
-6 -15 -13 0 -11 -22 -13 -102 -10 -57 1 -119 6 -138 9 -19 3 -37 6 -40 6 -3
0 -10 4 -17 9 -7 7 -13 5 -16 -3 -4 -9 -12 -5 -26 12 -17 21 -21 22 -21 7 0
-14 -5 -16 -26 -11 -16 4 -29 2 -33 -5 -6 -9 -15 -8 -37 4 -45 23 -76 18 -120
-19 -30 -25 -44 -32 -56 -25 -11 6 -19 5 -23 -1 -3 -5 -2 -10 3 -10 6 0 12 -6
15 -14 4 -10 0 -12 -13 -9 -11 3 -22 14 -25 24 -7 22 -54 61 -65 54 -5 -3 -20
-1 -35 5 -15 6 -31 8 -35 5 -16 -10 1 -35 24 -35 11 -1 39 -9 61 -20 l40 -19
-50 6 c-27 3 -56 10 -62 16 -7 5 -13 6 -13 2 0 -4 -6 -3 -13 3 -7 6 -18 7 -25
3 -15 -9 -60 -3 -67 10 -3 4 -12 6 -19 3 -8 -3 -17 -1 -21 5 -8 14 -65 14 -65
1 0 -5 5 -10 11 -10 5 0 8 -4 4 -10 -10 -15 -71 -23 -94 -11 -14 8 -21 8 -21
1 0 -5 -11 -10 -25 -10 -26 0 -34 15 -12 23 6 2 -4 9 -23 14 -19 5 -36 6 -38
1 -5 -13 -30 -10 -35 5 -3 9 -8 9 -21 -2 -14 -12 -19 -12 -25 -2 -4 6 -12 11
-17 10 -18 -6 -104 13 -104 22 0 11 -67 12 -74 1 -3 -5 -19 -9 -36 -10 -38 -1
-51 -9 -43 -27 3 -10 -2 -15 -16 -15 -12 0 -21 6 -21 15 0 23 -17 18 -24 -7
-3 -13 -6 -870 -6 -1905 l0 -1883 5160 0 5160 0 0 1845 0 1845 -23 -5 c-12 -4
-36 -1 -52 5 -21 8 -30 8 -36 -2 -6 -9 -13 -9 -32 1 -14 7 -34 10 -46 6 -21
-6 -22 -7 -4 -21 22 -17 3 -18 -32 -2 -21 9 -31 9 -46 0 -29 -19 -83 -14 -107
8 -19 18 -27 19 -62 10 -22 -6 -56 -8 -75 -4 -28 5 -35 3 -35 -10 0 -20 -38
-22 -46 -3 -7 19 -100 22 -107 3 -3 -8 -15 -12 -31 -9 -14 3 -24 9 -21 13 2 4
-13 4 -35 0 -21 -4 -44 -4 -51 1 -8 4 -18 1 -25 -9 -9 -12 -15 -13 -25 -6 -18
14 -197 16 -205 3 -3 -6 -19 -1 -38 11 -37 22 -51 25 -40 9 15 -26 -59 -39
-110 -20 -13 6 -26 18 -29 28 -4 15 -5 15 -6 2 -1 -21 -70 -36 -81 -19 -4 7
-38 13 -81 15 -41 1 -76 4 -79 5 -3 1 -29 2 -58 1 -31 -1 -51 2 -48 7 3 5 -13
9 -38 8 -24 0 -43 -5 -43 -11 2 -12 -62 -8 -79 5 -6 6 -19 8 -27 4 -9 -3 -26
1 -39 10 -27 19 -58 22 -40 4 7 -7 12 -18 12 -25 0 -11 -4 -11 -22 -1 -13 7
-27 13 -33 13 -30 3 -72 19 -82 32 -7 9 -24 16 -38 16 -18 0 -25 4 -21 13 4
11 -12 14 -84 14 -76 0 -90 -2 -90 -16 0 -13 -3 -14 -15 -4 -8 7 -26 9 -44 5
-16 -3 -48 -6 -70 -7 -58 -1 -61 -15 -6 -29 25 -6 48 -15 51 -20 3 -5 21 -9
40 -9 19 0 34 -4 34 -9 0 -5 19 -12 42 -16 60 -10 119 -75 68 -75 -11 0 -38 6
-60 12 -30 10 -39 17 -35 30 3 9 1 19 -5 23 -6 4 -10 -5 -10 -21 0 -26 -1 -27
-51 -21 -28 4 -57 11 -63 16 -7 6 -44 12 -82 14 -73 4 -98 12 -89 28 4 5 -12
9 -34 9 -31 0 -41 -4 -41 -16 0 -12 6 -15 24 -10 14 3 28 2 31 -4 3 -5 0 -10
-8 -10 -8 0 -30 -3 -48 -6 -23 -4 -30 -3 -21 4 11 7 10 10 -3 16 -9 3 -15 12
-12 20 4 11 -5 14 -39 14 -48 -1 -63 -24 -19 -30 14 -2 24 -7 23 -13 -3 -8
-46 -9 -108 -2 -8 1 -17 -2 -20 -8 -6 -12 52 -24 138 -29 48 -2 67 -8 82 -24
26 -27 25 -36 -1 -22 -11 7 -32 9 -45 6 -17 -5 -24 -2 -24 9 0 8 -9 15 -20 15
-22 0 -27 -15 -7 -24 10 -5 10 -7 0 -12 -16 -7 -17 -34 -1 -34 8 0 9 -3 2 -10
-18 -18 -55 4 -111 63 -57 60 -64 77 -33 77 24 0 27 15 4 24 -22 9 -24 8 -24
-9 0 -13 -16 -15 -101 -14 -72 1 -104 -2 -109 -11 -6 -9 -17 -3 -39 21 -17 19
-31 37 -31 41 0 7 -64 28 -84 28 -5 0 -6 -16 -3 -36 5 -32 4 -34 -16 -28 -11
4 -27 13 -35 21 -20 19 -36 11 -40 -19 -3 -25 -4 -26 -30 -13 -15 8 -44 21
-64 30 -21 9 -38 20 -38 25 0 5 16 2 35 -7 35 -17 53 -14 40 6 -3 6 -14 11
-24 11 -9 0 -35 9 -57 19 -21 11 -42 17 -46 14 -5 -2 -8 1 -8 6 0 6 7 11 15
11 9 0 20 11 25 24 5 13 15 26 22 29 9 3 3 15 -19 39 -18 19 -33 41 -33 51 0
9 -10 21 -21 28 -18 9 -24 8 -31 -5 -14 -25 -30 -19 -26 12 2 19 -4 33 -22 49
-19 16 -22 25 -14 33 9 9 7 25 -7 63 -11 29 -19 61 -19 72 0 11 -9 34 -21 50
-24 35 -43 77 -40 88 2 12 -64 181 -121 307 -50 112 -90 183 -136 245 -45 60
-132 227 -132 252 0 8 -16 57 -36 110 -31 83 -34 100 -24 117 9 15 10 21 1 24
-6 2 -11 8 -11 13 0 16 -53 69 -69 69 -12 0 -11 3 4 14 18 13 18 14 -4 21 -16
5 -20 12 -16 26 5 14 -1 26 -19 40 -14 11 -26 28 -26 38 0 16 -28 72 -86 176
-9 16 -41 60 -71 97 -29 37 -57 78 -62 90 l-9 23 -9 -24 c-6 -16 -12 -20 -17
-13 -4 7 -16 12 -27 12 -11 0 -17 5 -14 10 3 6 -4 14 -16 18 l-23 9 24 6 c13
3 22 8 19 11 -10 10 -223 8 -227 -2 -2 -6 -17 -4 -42 5 -23 9 -49 13 -65 9
-25 -6 -26 -8 -12 -24 14 -16 14 -19 -2 -41 -24 -32 -41 -19 -41 30 0 21 -4
47 -9 57 -5 9 -17 35 -26 57 -22 51 -53 85 -78 85 -15 0 -18 4 -12 23 38 119
41 165 11 154 -10 -4 -16 5 -21 29 -3 19 -15 40 -25 47 -24 14 -26 37 -5 37 9
0 27 12 40 26 l25 27 0 -54 c0 -30 7 -62 14 -72 12 -15 14 -12 20 29 11 82 8
105 -14 111 -12 3 -17 10 -12 17 18 28 -4 252 -28 281 -6 7 -8 19 -4 28 3 8
-4 35 -15 60 -11 25 -24 71 -27 102 -4 31 -10 51 -14 45 -13 -21 -19 5 -15 65
4 54 -6 95 -23 95 -4 0 -6 -21 -4 -47 l4 -48 -18 24 c-11 15 -17 39 -16 61 3
37 -7 51 -40 63 -10 3 -19 0 -22 -9z m152 -417 c-16 -11 -16 -13 1 -42 10 -16
21 -51 24 -77 l5 -48 -40 0 c-25 0 -41 5 -44 15 -4 8 -12 15 -20 15 -20 0 -64
22 -64 32 0 5 11 13 25 18 14 5 25 17 25 26 0 23 58 74 84 73 19 0 19 -1 4
-12z m729 -1823 c36 -63 25 -92 -26 -65 -21 12 -36 3 -46 -28 -7 -23 -6 -23
54 -18 l60 5 31 -48 c16 -26 30 -49 30 -51 0 -11 -72 -2 -79 10 -5 8 -16 11
-30 6 -13 -4 -28 -1 -36 5 -12 10 -15 9 -15 -3 0 -16 67 -37 119 -37 38 0 61
-9 61 -24 0 -9 -28 -13 -97 -13 -54 -1 -105 -3 -113 -5 -19 -4 -24 65 -9 132
17 79 20 94 26 143 4 32 2 47 -6 47 -6 0 -11 7 -11 16 0 25 59 -24 87 -72z
m-1561 26 c8 0 12 5 9 10 -3 6 1 10 9 10 9 0 16 5 16 12 0 9 3 9 12 0 6 -6 14
-50 17 -97 l6 -85 -107 -1 c-60 -1 -114 -2 -120 -3 -7 -1 -13 6 -13 14 0 21
92 30 122 12 24 -15 55 -6 32 9 -11 7 -10 9 4 9 9 0 17 -4 17 -8 0 -4 9 -8 19
-8 13 0 21 9 25 30 3 16 4 31 1 34 -2 3 -41 4 -85 4 -52 -1 -79 2 -75 8 3 5
41 10 83 10 54 0 73 3 62 10 -8 6 -27 7 -42 4 -15 -3 -37 -2 -49 1 -20 7 -20
8 8 37 26 28 28 28 31 9 2 -12 10 -21 18 -21z m0 -182 l74 1 -4 -37 c-3 -20
-5 -67 -5 -103 l-1 -67 -42 10 c-28 6 -72 5 -130 -2 -69 -9 -96 -9 -125 1 -21
7 -51 12 -67 11 -26 -2 -28 -1 -15 15 27 35 49 43 49 18 0 -8 5 -15 10 -15 6
0 10 6 10 14 0 16 53 29 58 15 5 -13 65 -44 77 -39 6 2 46 7 90 10 l80 7 -80
1 c-44 1 -87 7 -95 12 -15 10 -1 11 125 14 38 1 40 3 40 31 0 28 -3 30 -43 33
-23 2 -40 7 -37 12 11 17 -18 23 -31 6 -10 -14 -21 -17 -53 -11 -35 6 -41 4
-41 -10 0 -14 -6 -16 -36 -10 -28 5 -39 2 -49 -12 -7 -10 -16 -15 -20 -11 -4
4 3 21 15 38 18 25 25 29 36 19 12 -10 18 -9 32 6 16 17 16 17 -5 12 -18 -4
-23 -1 -23 13 0 15 9 20 48 23 26 1 55 1 65 -1 11 -2 52 -4 93 -4z m1741 -214
c0 -5 -3 -8 -8 -6 -5 1 -9 -3 -9 -9 0 -6 8 -9 18 -7 11 3 28 -12 50 -44 17
-26 32 -51 32 -56 0 -5 -21 -7 -47 -6 -27 2 -108 4 -181 5 -107 1 -134 4 -141
17 -7 13 -10 11 -16 -8 -5 -15 -2 -25 6 -31 12 -7 122 -10 379 -11 22 0 39
-12 40 -28 0 -8 -118 -6 -126 3 -4 4 -52 7 -106 7 -82 0 -98 -2 -98 -16 0 -10
8 -15 23 -14 39 4 57 0 57 -10 0 -6 -19 -11 -42 -11 -76 1 -113 -4 -118 -14
-3 -6 17 -11 50 -12 94 -4 160 -14 160 -24 0 -10 -63 -12 -74 -2 -9 10 -110 3
-117 -8 -7 -12 -57 -8 -62 6 -4 9 -3 32 2 90 1 12 4 16 9 9 4 -6 28 -14 55
-18 39 -6 47 -5 47 8 0 11 -10 16 -31 16 -68 0 -80 26 -58 129 l11 50 91 3
c144 5 202 2 204 -8z m-2124 -101 c4 -3 -1 -12 -11 -19 -9 -8 -12 -14 -5 -14
6 0 15 5 18 10 9 15 42 12 49 -5 4 -10 20 -15 51 -15 49 0 85 -13 85 -31 0 -7
-12 -9 -29 -7 -20 3 -27 0 -24 -8 6 -15 -17 -30 -26 -17 -8 13 -129 24 -137
12 -3 -5 0 -9 5 -9 7 0 7 -7 -1 -20 -13 -21 -38 -27 -38 -10 0 6 -7 10 -15 10
-8 0 -15 -4 -15 -10 0 -5 -7 -10 -15 -10 -23 0 -18 22 15 59 19 22 35 31 45
27 13 -4 15 -1 10 14 -9 27 21 61 38 43z m2409 -322 c34 -30 32 -55 -2 -33
-11 7 -20 8 -20 3 0 -4 -23 -9 -52 -10 -28 0 -53 -3 -55 -5 -3 -3 -24 1 -48 9
-31 9 -45 10 -48 2 -4 -12 -100 5 -147 26 -14 6 -56 14 -95 18 -57 6 -51 6 35
4 58 -2 130 -8 160 -13 30 -5 62 -6 70 -2 8 3 50 4 93 1 56 -4 77 -3 77 6 0 6
-8 14 -17 16 -17 4 -17 5 -1 6 10 0 32 -12 50 -28z m-554 -105 c35 5 42 4 42
-10 0 -12 10 -16 41 -16 22 0 49 -5 60 -10 13 -8 25 -7 41 3 20 11 32 11 85
-3 51 -13 59 -18 45 -27 -31 -20 -1 -28 116 -30 64 -1 142 -4 172 -8 30 -3 68
-7 85 -8 19 -1 31 -8 33 -19 2 -10 -1 -18 -7 -18 -6 0 -11 5 -11 12 0 6 -6 4
-14 -7 -9 -12 -20 -16 -35 -12 -17 4 -21 2 -19 -11 2 -13 15 -18 51 -19 27 -1
47 2 47 8 0 6 5 7 10 4 6 -3 10 -13 10 -21 0 -10 -13 -14 -53 -14 -43 0 -62 6
-106 35 -46 31 -57 34 -84 26 -28 -8 -29 -9 -8 -10 19 -1 22 -4 14 -12 -8 -8
-21 -8 -40 -2 -15 5 -65 8 -110 8 -61 -2 -83 1 -87 11 -7 19 -82 18 -134 0
-36 -13 -40 -13 -35 0 7 19 -23 19 -34 0 -4 -8 -26 -16 -47 -18 -22 -2 -41 -9
-44 -17 -3 -10 2 -12 21 -7 14 3 29 2 32 -4 4 -6 -8 -10 -28 -10 -30 0 -37 4
-46 31 -14 40 -26 199 -13 181 6 -9 21 -11 50 -6z m-1651 -234 c-123 -5 -69
-21 76 -21 78 -1 151 -2 161 -4 23 -4 32 -22 17 -32 -6 -3 -11 -17 -11 -30 0
-52 -24 -71 -50 -40 -13 15 -53 12 -77 -7 -7 -5 -21 -7 -32 -3 -14 4 -21 0
-26 -15 -4 -11 -15 -20 -26 -20 -11 0 -19 -6 -18 -12 3 -22 -1 -43 -10 -57 -8
-12 -12 -12 -25 -2 -8 7 -25 11 -38 9 -15 -2 -24 3 -26 15 -2 9 1 17 7 17 6 0
11 -4 11 -10 0 -5 9 -10 20 -10 26 0 26 16 0 32 -20 13 -20 13 0 28 11 8 16
20 12 26 -9 14 -62 27 -62 15 0 -5 -9 -7 -20 -4 -15 4 -20 0 -20 -13 0 -17 -1
-17 -13 1 -11 14 -23 17 -54 13 -22 -3 -47 -2 -56 3 -9 5 -18 5 -21 1 -3 -5
-32 -8 -64 -8 -55 2 -58 1 -43 -16 9 -10 25 -18 37 -18 13 0 24 -8 27 -19 7
-28 1 -30 -41 -15 -20 7 -57 14 -82 14 -33 1 -40 3 -25 9 11 5 23 7 28 4 4 -2
7 0 7 5 0 14 -49 21 -57 9 -3 -6 -29 -7 -64 -3 -39 4 -60 2 -65 -6 -5 -7 -15
-1 -31 18 -17 22 -23 25 -23 12 0 -10 -4 -18 -10 -18 -5 0 -10 5 -10 10 0 17
-38 11 -49 -7 -9 -15 -10 -14 -11 10 0 34 -7 34 -42 0 -26 -25 -30 -26 -44
-11 -15 15 -14 19 9 50 14 18 27 44 29 58 3 24 7 25 78 31 41 3 92 9 113 14
20 4 37 3 37 -1 0 -5 11 -10 25 -10 14 -1 36 -5 50 -8 14 -4 25 -2 25 4 0 5
-5 10 -11 10 -5 0 -8 4 -4 9 6 10 78 13 108 5 9 -3 15 -9 12 -14 -8 -12 20
-19 103 -24 41 -3 72 -1 72 4 0 5 -6 7 -13 4 -7 -2 -27 2 -43 11 l-29 15 40 1
c22 0 69 0 105 -1 36 -1 76 3 88 7 14 5 42 5 69 -2 l46 -10 -66 -3z m2434 -2
c4 -3 11 -17 14 -33 6 -22 3 -28 -16 -35 -23 -9 -23 -9 -3 -22 15 -9 19 -20
16 -37 -3 -17 0 -24 9 -23 57 8 44 -13 -18 -30 -27 -7 -59 -19 -73 -26 -22
-10 -29 -10 -49 6 -13 9 -32 15 -43 12 -10 -2 -25 2 -34 9 -11 9 -17 10 -22 1
-4 -6 -21 -11 -37 -11 -17 0 -50 -2 -75 -4 -25 -2 -50 0 -57 5 -8 6 -13 0 -18
-22 -4 -16 -11 -30 -17 -30 -6 0 -8 9 -5 20 8 30 -10 24 -47 -16 -21 -23 -36
-32 -40 -25 -4 6 -22 12 -39 12 -24 1 -26 3 -9 6 12 2 22 7 22 11 -1 26 -68
62 -112 61 -21 -1 -26 -3 -13 -6 44 -11 38 -23 -11 -23 -28 0 -54 4 -60 9 -5
5 -20 11 -34 13 -29 4 -38 28 -39 113 -1 46 2 56 11 47 14 -14 104 -16 112 -3
4 5 21 5 43 -1 48 -11 47 -11 110 -10 42 2 51 5 47 17 -4 10 0 15 11 15 11 0
15 -5 12 -14 -4 -11 6 -15 45 -18 51 -3 81 5 57 15 -8 4 4 3 26 0 22 -4 49 -7
60 -7 11 -1 25 -5 32 -9 21 -14 222 -12 235 2 11 10 8 12 -12 11 -38 -3 -50
-1 -50 10 0 6 11 10 25 10 17 0 25 6 26 18 0 13 2 14 6 2 3 -8 9 -17 14 -20z
m-948 -869 c23 -21 62 -53 87 -70 41 -30 45 -36 46 -77 1 -24 -2 -44 -6 -44
-11 0 -1 -94 10 -98 6 -2 10 -10 10 -17 0 -10 -8 -7 -23 8 -13 12 -40 37 -60
55 -20 18 -37 39 -37 48 0 8 -11 30 -25 48 -14 18 -22 35 -19 38 3 4 1 14 -5
25 -10 17 -41 108 -41 118 0 14 25 1 63 -34z m135 -355 c22 -21 20 -457 -2
-561 -24 -112 -41 -161 -49 -141 -4 9 -2 27 3 41 12 31 21 247 11 260 -4 5
-14 33 -21 60 -16 63 -71 217 -82 230 -4 5 -8 17 -8 26 0 10 -5 19 -12 21 -6
2 -8 10 -4 16 10 17 26 15 26 -3 0 -9 15 -32 33 -51 17 -20 36 -42 40 -50 9
-16 37 -19 37 -5 0 6 -5 13 -11 17 -6 3 -8 17 -5 29 3 13 2 27 -4 30 -5 3 -10
20 -10 37 0 17 -8 40 -17 51 -18 19 -17 20 22 13 22 -4 46 -13 53 -20z"/>
<path d="M6502 5243 c-10 -4 -9 -8 5 -19 17 -13 17 -13 -2 -14 -12 -1 -4 -7
20 -15 37 -12 38 -13 11 -14 -21 -1 -27 -5 -22 -16 4 -12 -5 -15 -52 -15 -31
0 -64 -5 -72 -10 -10 -7 11 -10 70 -10 47 0 96 -3 110 -6 18 -4 21 -3 12 4 -8
5 -12 18 -10 28 4 22 48 31 74 16 15 -9 15 -10 -4 -16 -12 -4 -22 -12 -22 -17
0 -9 41 -29 61 -29 18 0 8 18 -13 24 -33 9 -5 25 36 21 17 -1 22 0 12 2 -25 6
-49 30 -37 37 5 4 11 1 13 -5 4 -12 253 -18 265 -6 13 14 -5 17 -113 19 -106
3 -141 16 -78 29 l29 7 -32 1 c-17 0 -33 -4 -35 -10 -5 -16 -198 -26 -198 -10
0 6 6 11 13 11 8 0 7 4 -3 10 -16 11 -19 11 -38 3z"/>
<path d="M7213 4982 c-12 -2 -25 -12 -28 -23 -6 -19 -11 -20 -120 -25 -27 -1
-54 -3 -60 -4 -25 -5 -202 -4 -193 1 13 8 -17 19 -52 19 -30 0 -49 -15 -28
-23 7 -2 -27 -8 -76 -12 -58 -5 -83 -11 -75 -17 9 -5 3 -6 -16 -1 -32 7 -38 8
-102 5 -76 -3 -46 -19 48 -25 79 -6 94 -5 104 10 10 13 19 15 51 6 22 -5 78
-8 125 -5 58 3 89 1 93 -7 11 -17 76 -14 76 4 0 18 0 18 55 4 28 -7 42 -15 39
-24 -4 -9 26 -14 125 -20 74 -4 129 -11 125 -16 -6 -10 16 -11 136 -11 103 1
100 0 94 17 -5 11 1 15 23 15 16 0 34 -5 39 -10 6 -6 60 -11 121 -13 89 -2
115 -5 130 -19 11 -10 25 -18 31 -18 20 0 13 20 -10 30 -21 8 -20 9 9 9 17 1
33 -3 35 -9 2 -5 26 -10 53 -10 71 -1 235 21 235 32 0 5 -12 9 -27 8 -16 -1
-37 -1 -48 0 -19 1 -19 2 -1 9 10 4 59 2 110 -5 53 -7 98 -8 108 -3 9 5 25 9
35 9 15 0 16 -2 3 -10 -8 -5 -11 -12 -7 -16 3 -4 13 -1 22 6 12 10 18 10 30 0
8 -7 25 -10 40 -6 14 4 35 1 48 -6 34 -19 59 -18 79 6 l17 21 1 -27 c0 -27 1
-28 63 -30 34 0 90 -2 125 -4 34 -1 62 1 62 4 0 10 -120 32 -174 32 -25 0 -48
5 -51 10 -4 6 13 10 43 10 27 0 64 3 81 6 24 5 31 3 31 -9 0 -17 59 -19 73 -2
6 6 10 6 14 -3 2 -6 10 -9 16 -5 7 4 36 8 66 8 31 0 56 5 58 11 5 14 -117 26
-133 13 -7 -5 -29 -7 -50 -3 -22 3 -88 7 -149 7 -94 2 -110 4 -109 18 1 11 -8
16 -33 17 -19 1 -49 9 -66 17 -39 19 -152 11 -161 -11 -3 -8 -1 -14 5 -14 6 0
8 -4 5 -9 -9 -14 -546 -9 -546 6 0 21 -20 25 -153 30 -86 2 -134 8 -139 16 -4
6 -11 8 -15 3 -4 -5 -2 -11 5 -13 6 -3 12 -10 12 -17 0 -8 21 -12 67 -13 57 0
68 -4 84 -24 18 -24 18 -24 -14 -27 -17 -2 -33 1 -35 7 -2 6 -22 11 -45 11
-24 0 -48 7 -60 18 -21 19 -114 41 -197 46 -41 3 -57 0 -66 -12 -10 -14 -13
-13 -23 6 -10 19 -9 22 7 22 21 0 48 26 35 32 -4 2 -18 2 -30 0z"/>
<path d="M9251 4931 c-32 -20 3 -31 105 -31 57 0 104 -3 104 -6 0 -10 -26 -32
-46 -37 -10 -2 -3 -4 17 -4 40 0 59 -8 59 -26 0 -9 -3 -8 -8 1 -6 9 -55 14
-181 17 -166 4 -222 -6 -104 -19 32 -3 85 -10 118 -15 52 -8 42 -9 -68 -8
-173 3 -158 -27 19 -36 40 -2 69 -9 74 -17 4 -7 13 -9 19 -6 16 10 13 24 -6
29 -10 3 3 5 29 6 48 1 72 15 41 25 -10 3 7 3 37 0 30 -3 59 -9 65 -15 14 -14
22 -11 28 11 3 12 14 20 26 20 24 0 27 -10 9 -28 -10 -10 -10 -15 2 -22 10 -6
17 -4 23 5 10 19 27 19 27 0 0 -17 25 -20 35 -5 3 6 26 10 51 10 24 0 53 5 64
12 10 7 23 9 27 5 4 -5 2 -12 -6 -16 -10 -6 -9 -10 4 -15 23 -9 25 -8 25 9 0
8 7 15 15 15 8 0 15 -4 15 -10 0 -5 8 -10 18 -10 16 1 16 1 0 11 -29 16 -21
24 27 25 24 0 51 7 60 14 8 7 19 9 23 5 4 -4 -3 -14 -15 -22 -13 -9 -23 -19
-23 -24 0 -14 58 -10 89 6 16 8 30 12 33 10 2 -2 44 -7 93 -10 49 -4 93 -9 97
-11 4 -3 8 0 8 5 0 6 9 11 20 11 14 0 20 7 20 21 0 11 -4 18 -8 15 -4 -2 -14
-1 -22 4 -13 8 -12 11 3 22 15 11 5 13 -63 14 -53 0 -79 -3 -77 -10 2 -6 22
-10 45 -8 32 3 42 0 42 -11 0 -25 -67 -33 -99 -13 -8 5 -35 9 -60 8 -25 0 -54
4 -64 10 -10 5 -24 6 -30 1 -20 -14 -46 -9 -61 12 -12 16 -17 18 -27 8 -10
-10 -10 -13 -1 -13 26 0 10 -16 -18 -18 -16 -1 -30 2 -30 7 0 6 -18 16 -40 22
-32 10 -45 10 -65 -1 -14 -7 -24 -20 -23 -28 2 -8 -2 -17 -9 -19 -7 -3 -10 5
-9 21 4 30 0 32 -21 11 -10 -11 -19 -13 -27 -6 -7 6 -22 8 -34 4 -16 -4 -22
-1 -22 10 0 9 8 18 18 20 9 2 2 3 -17 1 -19 -2 -38 -8 -42 -15 -5 -8 -16 -8
-43 1 -42 14 -43 16 -15 31 16 8 27 8 45 -1 16 -9 27 -10 36 -3 7 6 25 13 41
17 15 3 27 12 27 20 0 10 -10 12 -42 5 -24 -4 -47 -4 -52 1 -5 5 -17 5 -29 -1
-14 -8 -27 -8 -44 0 -30 14 -56 14 -48 1 6 -10 -92 -6 -150 5 -11 2 -26 0 -34
-4z"/>
<path d="M6660 4840 c0 -5 10 -10 22 -10 12 0 19 -2 16 -5 -3 -4 -52 -1 -108
4 -56 6 -119 8 -140 5 -36 -6 -37 -7 -30 -38 15 -63 19 -66 74 -66 51 0 87
-13 73 -26 -4 -4 -18 -2 -32 4 -28 13 -68 16 -78 6 -10 -10 16 -42 30 -37 7 3
13 0 13 -7 0 -9 3 -10 14 -1 16 14 92 0 89 -17 -4 -16 28 -23 62 -13 17 5 23
10 14 10 -20 1 -48 31 -30 31 7 0 22 -5 34 -11 16 -9 22 -9 25 0 3 9 57 10
220 5 162 -5 213 -4 208 4 -4 7 -13 12 -21 12 -8 0 -16 3 -18 8 -3 4 43 7 101
8 130 1 230 13 210 25 -7 5 -21 6 -30 3 -10 -3 -18 -1 -18 5 0 14 -33 14 -47
0 -14 -14 -58 -8 -58 9 0 7 -7 17 -15 22 -22 14 35 13 62 -1 14 -8 23 -8 31 0
20 20 -43 33 -133 26 -47 -3 -132 -10 -190 -14 -58 -4 -95 -8 -83 -9 33 -3 37
-20 6 -24 -16 -2 -66 0 -113 5 -107 9 -159 14 -287 23 -80 5 -103 10 -103 22
0 12 17 13 108 9 59 -3 119 -9 135 -12 21 -6 27 -4 27 9 0 15 7 16 45 10 30
-4 45 -3 45 5 0 6 -19 11 -45 11 -25 0 -45 5 -45 10 0 6 -9 10 -20 10 -11 0
-20 -4 -20 -10z"/>
<path d="M8528 4762 c-34 -4 -37 -19 -6 -24 13 -2 24 -10 26 -18 2 -12 -12
-15 -73 -16 -44 0 -80 -5 -87 -12 -19 -19 -45 -14 -72 15 -20 22 -28 25 -38
15 -7 -7 -25 -12 -41 -12 -15 0 -37 -5 -48 -10 -13 -8 -19 -7 -19 0 0 7 -59
10 -187 9 -186 -2 -257 -10 -203 -23 14 -3 41 -7 60 -9 19 -2 -17 -5 -80 -7
-63 -1 -119 -1 -125 1 -20 7 -101 5 -124 -3 -14 -5 -29 -4 -36 2 -26 21 -195
12 -195 -11 0 -10 8 -11 155 -9 132 1 116 1 245 -6 58 -3 119 -6 135 -5 64 1
210 12 214 16 2 3 -7 9 -20 13 l-24 9 24 8 c17 5 28 3 35 -7 13 -17 155 -39
244 -38 35 1 85 -4 112 -11 43 -11 50 -10 66 6 18 18 18 18 -8 12 -28 -7 -68
9 -68 27 0 4 37 6 83 2 45 -3 109 -2 141 2 69 8 87 29 29 34 -30 2 -37 7 -35
21 2 14 -2 18 -15 15 -10 -2 -22 1 -28 7 -5 6 -22 9 -37 7z"/>
<path d="M9665 4680 c-18 -8 -17 -9 10 -11 46 -3 49 -4 64 -13 8 -5 48 -9 89
-7 43 1 80 -3 88 -10 10 -8 22 -8 45 0 46 16 50 14 47 -16 l-3 -28 141 -1 c78
-1 146 -4 152 -8 6 -3 13 -2 17 4 9 15 -63 40 -119 41 -28 0 -67 -6 -86 -14
-46 -19 -80 -7 -80 28 0 30 -29 46 -43 23 -8 -12 -18 -13 -51 -6 -23 6 -70 12
-106 13 -36 2 -83 6 -105 9 -22 3 -49 1 -60 -4z"/>
<path d="M8288 4609 c-2 -7 -55 -14 -133 -19 -106 -6 -134 -5 -152 7 -12 8
-28 11 -34 7 -7 -4 -41 -6 -76 -5 -36 1 -70 -2 -76 -7 -7 -6 -21 -12 -32 -14
-11 -2 32 -4 95 -4 73 1 124 -4 140 -11 14 -7 49 -13 78 -13 39 0 52 -4 52
-15 0 -9 9 -15 23 -15 17 0 19 2 7 10 -8 5 -11 12 -7 16 11 11 79 5 95 -8 17
-14 37 11 22 26 -18 18 -10 28 18 22 15 -3 81 -8 147 -11 66 -3 127 -8 135
-10 23 -7 75 10 78 26 2 12 -25 14 -160 14 -90 0 -175 4 -190 8 -16 4 -28 3
-30 -4z"/>
<path d="M6537 4563 c-4 -7 8 -45 28 -88 19 -42 35 -87 35 -101 0 -13 5 -24
11 -24 5 0 8 -4 5 -9 -3 -5 4 -29 16 -53 21 -44 23 -45 71 -47 27 -1 57 -6 66
-11 11 -8 -1 -10 -44 -8 -68 2 -80 -11 -46 -53 17 -21 28 -24 84 -24 36 0 60
-3 54 -7 -7 -4 -36 -8 -64 -8 -55 0 -70 -14 -30 -29 30 -12 277 -13 277 -2 0
5 -10 11 -22 15 -17 4 -20 8 -11 17 9 9 23 9 58 0 25 -6 108 -12 183 -13 86 0
121 -3 95 -8 -24 -3 -45 -9 -49 -12 -10 -10 104 -21 148 -14 23 4 46 2 53 -4
15 -13 47 -2 42 14 -2 6 -18 11 -35 12 -17 0 -35 4 -39 8 -11 12 122 -1 146
-14 27 -14 178 -13 183 1 4 12 92 4 248 -22 61 -10 194 -8 388 6 58 4 82 3 82
-5 0 -8 -13 -10 -37 -6 -21 4 -45 2 -53 -4 -12 -8 -8 -10 15 -11 55 -2 100 3
105 11 3 5 30 12 60 16 30 4 60 11 67 16 14 11 73 1 73 -13 0 -5 -22 -9 -50
-9 -27 0 -50 -4 -50 -9 0 -13 85 -25 101 -15 7 4 53 11 102 15 90 7 147 -2
147 -24 0 -6 6 -3 13 7 11 15 18 16 59 5 38 -11 52 -10 72 0 16 9 37 11 58 7
104 -23 319 -14 458 20 23 5 24 4 7 -9 -16 -14 -15 -15 20 -18 21 -2 54 -1 73
2 27 5 29 7 10 8 -27 1 -61 51 -35 51 8 0 16 -4 20 -9 15 -25 316 -53 330 -31
4 6 -7 10 -27 11 l-33 1 38 8 c21 4 73 5 115 3 47 -2 86 1 99 8 19 10 26 9 40
-3 10 -8 26 -15 36 -15 14 0 17 10 17 52 0 51 -25 105 -36 78 -8 -18 -31 -16
-38 2 -7 19 -45 19 -66 0 -9 -8 -25 -12 -38 -8 -27 7 -29 23 -2 23 12 0 17 5
14 13 -6 17 -75 17 -92 0 -18 -17 -29 -16 -36 2 -3 9 0 15 9 15 8 0 15 4 15 9
0 16 -30 41 -48 41 -15 -1 -15 -2 1 -11 25 -15 13 -26 -23 -21 -28 4 -29 5
-13 18 17 12 16 13 -9 14 -14 0 -29 6 -32 13 -2 6 -4 3 -3 -8 2 -21 -3 -25
-29 -25 -10 0 -14 6 -11 14 10 24 -39 56 -86 56 -24 0 -48 5 -54 11 -6 6 -79
12 -179 15 -93 3 -174 7 -181 9 -6 2 -9 13 -6 23 2 11 0 23 -6 26 -6 4 -11 2
-11 -3 0 -6 -9 -11 -20 -11 -26 0 -26 -16 0 -30 12 -7 17 -16 13 -27 -5 -13
-2 -15 18 -9 51 16 82 18 104 6 13 -7 37 -10 54 -7 16 4 56 2 88 -4 32 -5 87
-10 123 -10 99 1 151 -24 118 -57 -16 -16 36 -40 55 -24 9 8 23 7 52 -2 67
-23 55 -36 -33 -36 -62 0 -81 3 -86 15 -4 11 -14 14 -33 10 -16 -3 -22 -2 -15
1 25 12 11 21 -33 22 -25 0 -45 -4 -45 -9 0 -5 14 -9 32 -9 26 0 29 -3 20 -12
-13 -13 -41 -18 -94 -18 -16 0 -28 -4 -28 -10 0 -5 -15 -8 -32 -6 -18 2 -36 0
-39 -5 -7 -11 -39 -1 -39 12 0 5 10 9 21 9 18 0 19 2 9 15 -12 14 -15 14 -36
0 -29 -19 -64 -20 -64 -1 0 15 24 39 32 31 8 -8 58 13 58 25 0 5 -9 10 -20 10
-11 0 -20 3 -20 8 0 4 -15 16 -34 26 -32 17 -36 17 -57 2 -22 -15 -22 -16 -4
-17 11 -1 30 0 43 1 12 1 22 -3 22 -9 0 -6 -9 -11 -19 -11 -22 0 -36 -26 -18
-34 9 -5 9 -7 0 -12 -7 -3 -10 -11 -7 -19 6 -15 0 -20 -40 -29 -26 -6 -28 -5
-16 9 15 18 16 17 -29 35 -34 14 -131 21 -131 11 1 -17 19 -31 32 -26 9 4 19
1 23 -5 9 -14 -92 -4 -111 11 -6 5 -13 7 -15 5 -2 -2 -23 -6 -46 -10 -34 -5
-43 -3 -43 9 0 20 33 36 72 33 29 -3 33 0 31 19 -2 13 4 23 15 26 35 9 -35 -2
-95 -14 -48 -10 -63 -18 -63 -31 0 -14 -9 -18 -37 -18 -21 0 -51 0 -68 -1 -20
0 -34 6 -44 20 -7 12 -19 21 -26 21 -7 0 -15 7 -19 15 -6 16 -40 13 -83 -7
-12 -6 -48 -8 -85 -5 -34 4 -92 9 -127 12 -57 6 -63 5 -57 -10 6 -16 -1 -16
-76 -10 -46 4 -91 11 -101 17 -9 5 -21 6 -26 3 -18 -11 -151 -16 -151 -5 0 5
-9 10 -21 10 -15 0 -19 -5 -15 -15 4 -11 -2 -15 -26 -15 -25 0 -29 3 -20 12
27 27 14 39 -40 36 -51 -3 -71 -19 -32 -26 10 -2 23 -8 29 -13 5 -5 -20 -9
-63 -9 -65 0 -93 11 -59 23 6 2 8 8 4 13 -5 5 -69 8 -143 6 -88 -2 -134 1
-134 8 0 6 32 10 83 10 94 0 136 8 115 21 -9 6 -2 9 20 9 17 0 32 5 32 10 0
10 -110 7 -127 -3 -8 -5 -99 -2 -388 11 -150 7 -205 0 -205 -25 0 -19 22 -27
34 -12 8 11 40 14 132 14 102 0 120 -2 117 -15 -6 -21 -56 -45 -62 -29 -2 7
-11 2 -21 -12 -16 -20 -22 -22 -42 -12 -12 6 -30 14 -38 16 -8 3 -3 6 12 6 15
1 30 5 33 11 7 12 -116 12 -131 -1 -15 -13 -88 1 -75 14 21 21 10 24 -76 21
-49 -1 -82 0 -75 3 23 9 12 23 -19 23 -44 0 -32 24 14 28 20 2 37 9 37 15 0 9
-26 11 -92 9 -101 -3 -118 -6 -118 -21 0 -6 22 -8 53 -5 50 4 48 -3 -5 -20
-10 -3 -18 -9 -18 -15 0 -13 35 -20 52 -10 23 13 56 0 51 -20 -4 -16 3 -18 69
-14 58 3 70 1 60 -9 -12 -12 -234 -30 -260 -20 -27 10 9 19 53 15 24 -3 45 -1
49 5 4 7 -15 13 -51 17 -32 3 -72 7 -90 10 -21 2 -36 -2 -45 -13 -11 -13 -11
-15 4 -9 11 4 22 -2 32 -19 14 -21 14 -24 2 -24 -29 0 -67 23 -61 38 4 11 -1
13 -21 9 -25 -4 -25 -3 -19 37 7 39 6 40 -10 21 -16 -19 -16 -19 -10 8 4 20 1
29 -10 34 -9 3 -14 12 -10 21 3 8 -3 21 -14 28 -11 8 -21 24 -23 37 -2 14 -6
18 -11 10z"/>
<path d="M8760 4560 c0 -6 6 -13 13 -16 25 -9 188 -20 193 -12 3 4 88 6 190 5
101 -2 184 0 184 5 0 4 -15 9 -32 10 -233 14 -548 19 -548 8z"/>
<path d="M8442 4503 c3 -20 9 -20 -156 -7 -77 6 -98 5 -92 -5 5 -7 18 -17 30
-22 16 -7 11 -8 -19 -4 -22 4 -67 6 -100 5 -58 -1 -68 11 -20 23 11 3 1 5 -22
6 -23 0 -44 -3 -47 -8 -5 -8 -69 -24 -106 -26 -8 -1 -24 -7 -35 -14 -19 -12
-19 -12 3 -8 12 3 22 1 22 -4 0 -5 13 -9 29 -9 16 0 42 -5 58 -11 15 -6 57
-13 93 -15 36 -2 95 -11 132 -20 49 -12 71 -13 86 -5 11 6 33 8 49 5 15 -3 39
-1 53 5 l25 10 -27 0 c-15 1 -30 6 -34 12 -6 10 -23 9 -102 -7 -26 -5 -40 -2
-63 15 -21 16 -36 20 -52 15 -39 -13 -95 -11 -89 4 4 10 30 12 122 8 90 -5
119 -3 123 7 3 9 12 8 37 -5 17 -10 40 -18 50 -18 31 0 49 -11 43 -26 -9 -24
46 -38 82 -20 l30 15 -42 0 c-31 1 -43 5 -43 16 0 8 6 15 14 15 22 0 82 -28
96 -44 14 -18 105 -22 130 -6 8 5 11 10 5 10 -5 1 6 8 25 16 21 9 48 13 68 9
33 -6 45 8 15 19 -27 11 -124 -5 -130 -20 -7 -19 -40 -18 -51 2 -8 14 -10 14
-21 0 -15 -17 -41 -22 -41 -7 0 5 -3 16 -6 25 -4 11 -1 16 10 16 9 0 16 5 16
10 0 6 -23 10 -51 10 -36 0 -49 4 -47 13 3 6 17 13 31 15 49 6 28 22 -28 22
-48 0 -55 -3 -53 -17z"/>
<path d="M9083 4407 c9 -24 -19 -43 -40 -26 -20 17 -279 17 -296 0 -8 -8 -1
-11 24 -12 18 -1 59 -2 89 -3 30 -1 61 -5 68 -9 6 -5 12 -4 12 2 0 5 -6 12
-12 14 -31 13 22 5 90 -12 46 -12 74 -15 78 -9 4 6 19 7 35 4 16 -3 29 -1 29
4 0 5 -12 11 -27 13 -16 2 9 2 55 0 55 -3 82 -1 82 6 0 6 -8 11 -18 11 -10 0
-22 3 -26 8 -4 4 -29 8 -54 8 -26 1 -58 5 -71 9 -20 7 -23 5 -18 -8z"/>
<path d="M10175 4080 c-4 -6 -19 -10 -33 -9 -15 2 -43 -2 -62 -9 -36 -12 -99
-15 -235 -11 -57 2 -79 -1 -77 -9 2 -12 -22 -17 -70 -13 -20 2 -28 -2 -28 -13
0 -16 -9 -19 -59 -20 -13 -1 -26 -7 -28 -13 -5 -14 36 -18 117 -14 53 3 80 21
32 21 -18 0 -32 4 -32 8 0 10 190 25 199 16 9 -9 -21 -23 -38 -17 -14 4 -14 3
-1 -5 19 -12 121 -34 128 -27 3 3 0 5 -7 5 -17 0 -43 27 -33 34 13 8 219 2
228 -6 4 -5 30 -8 58 -7 l51 1 -60 14 c-33 7 -90 13 -127 14 -37 0 -70 5 -73
11 -5 7 33 9 126 6 74 -3 141 -6 149 -8 10 -3 16 5 18 23 3 26 1 27 -40 26
-24 0 -55 3 -69 7 -17 4 -29 3 -34 -5z"/>
<path d="M7133 4042 c-5 -20 -10 -21 -89 -15 -81 6 -84 5 -84 -16 0 -20 -5
-21 -75 -21 -41 0 -75 -3 -74 -7 0 -5 13 -28 28 -53 25 -41 32 -46 77 -52 144
-21 151 -21 157 -4 6 14 -5 16 -91 17 -76 1 -89 3 -62 10 19 4 63 9 97 11 53
3 65 0 83 -19 23 -26 42 -28 106 -12 37 10 48 9 69 -5 17 -11 46 -16 97 -16
66 1 71 2 54 15 -19 15 -19 15 1 15 12 0 25 -5 28 -10 4 -6 11 -8 16 -5 5 4 9
2 9 -3 0 -17 156 -19 315 -4 50 4 128 5 175 2 144 -10 313 -6 317 7 3 8 14 8
38 2 23 -7 41 -6 53 0 12 6 66 8 138 4 65 -3 137 -6 159 -5 95 1 194 8 199 13
8 7 -155 32 -229 34 -33 1 -62 3 -65 4 -20 9 -53 13 -104 12 -40 -2 -62 2 -67
11 -7 10 -9 8 -9 -6 0 -15 -5 -17 -32 -12 -18 3 -61 6 -96 6 -35 -1 -70 4 -77
10 -8 7 -43 14 -77 17 -53 5 -61 3 -50 -8 7 -7 36 -17 65 -20 54 -8 -43 -3
-168 7 -87 7 -115 7 -166 -1 -35 -6 -55 -3 -84 11 -33 15 -38 16 -46 2 -7 -12
-34 -15 -154 -14 -103 1 -145 -2 -145 -10 0 -15 -159 -11 -220 6 -30 8 -69 9
-120 4 -88 -9 -111 -7 -153 11 l-32 14 30 2 c17 1 35 0 40 -1 6 -2 34 -3 64
-4 40 -1 55 3 58 14 4 12 3 13 -5 1 -8 -12 -13 -11 -32 2 -33 23 -9 29 62 17
45 -8 63 -9 66 -1 5 14 59 14 67 1 3 -5 -1 -10 -10 -10 -9 0 -13 -4 -10 -10 3
-5 15 -10 26 -10 10 0 19 5 19 10 0 6 42 10 105 10 88 0 107 3 112 16 5 12 15
15 47 11 23 -3 33 -3 24 0 -10 2 -18 9 -18 14 0 14 40 11 46 -5 3 -8 15 -11
29 -8 13 2 39 -1 59 -8 22 -7 42 -8 51 -2 26 14 -52 44 -116 43 -178 0 -267
-7 -284 -21 -15 -12 -19 -12 -29 1 -6 8 -20 15 -31 16 -11 0 -33 3 -48 8 -24
6 -29 4 -34 -13z"/>
<path d="M8030 4032 c0 -17 13 -21 96 -27 105 -7 153 -15 160 -26 9 -15 37
-10 31 5 -9 22 33 33 48 13 9 -13 19 -14 51 -7 21 5 69 10 106 10 54 0 66 -3
62 -14 -4 -11 0 -13 15 -9 12 3 28 0 36 -7 9 -7 19 -9 23 -5 4 4 -3 14 -15 22
-24 16 -31 43 -11 43 6 0 8 3 5 6 -4 4 -12 2 -19 -4 -12 -10 -139 -9 -155 1
-5 3 -26 2 -49 -2 -22 -4 -51 -4 -63 1 -15 5 -32 3 -53 -8 -25 -13 -41 -14
-96 -5 -131 20 -172 23 -172 13z"/>
<path d="M8730 3949 c0 -14 73 -20 158 -14 74 6 90 4 101 -9 8 -9 22 -16 32
-16 11 0 19 -4 19 -9 0 -18 -32 -20 -70 -5 -22 9 -48 13 -57 9 -17 -7 -16 -8
2 -15 11 -5 35 -9 53 -9 17 -1 32 -5 32 -11 0 -8 -26 -13 -70 -12 -3 0 -15 3
-27 7 -17 5 -23 2 -23 -9 0 -13 -16 -16 -92 -18 l-93 -1 110 -7 c61 -4 123
-11 139 -15 25 -7 28 -6 23 9 -6 15 -3 17 22 11 17 -4 38 -1 50 7 11 7 24 8
28 4 4 -5 2 -11 -4 -13 -24 -9 -13 -21 25 -27 75 -13 272 -18 272 -7 0 15 26
14 60 -4 18 -9 31 -11 35 -5 3 6 17 10 30 10 18 0 23 4 19 15 -4 10 -13 13
-26 9 -32 -10 -241 -11 -262 -1 -12 6 -27 5 -42 -3 -18 -10 -29 -10 -54 0 -17
7 -28 15 -24 19 6 6 70 11 119 8 61 -3 161 0 198 7 53 10 36 27 -26 26 -92 -1
-191 12 -210 28 -19 17 -69 21 -105 9 -16 -6 -22 -5 -20 4 2 8 -13 16 -37 22
-47 10 -285 15 -285 6z"/>
<path d="M9622 3911 c-25 -15 -41 -17 -70 -10 -21 4 -41 4 -46 -1 -5 -5 -19
-2 -33 7 -27 18 -42 10 -27 -15 8 -12 27 -18 70 -20 168 -7 307 -21 317 -31 6
-6 34 -11 62 -11 l50 1 -38 14 c-43 15 -53 22 -44 31 3 4 20 1 38 -5 44 -15
60 -14 53 4 -4 8 -17 15 -29 15 -13 0 -26 4 -29 9 -3 5 -43 9 -88 10 -45 1
-87 6 -92 11 -15 15 -57 11 -94 -9z"/>
</g>
</svg>
